<svg xmlns="http://www.w3.org/2000/svg" width="256" height="256"><style type="text/css">.st0{fill:#D13F2D;} .st1{fill:#FFFFFF;}</style><path class="st0" d="M255 234.3c0 11.5-9.3 20.7-20.7 20.7h-212.6c-11.4 0-20.7-9.3-20.7-20.7v-212.6c0-11.4 9.3-20.7 20.7-20.7h212.5c11.5 0 20.7 9.3 20.7 20.7v212.6z"/><polygon id="Plus" class="st1" points="218,86 191,86 191,56 183,56 183,86 154,86 154,93 183,93 183,120 191,120 191,93 218,93"/><path id="g" class="st1" d="M122.2 138.8c-4-2.8-11.7-9.8-11.7-13.8 0-4.8 1.4-7.1 8.5-12.7 7.3-5.7 12.5-13 12.5-22.4 0-11.2-5-22.9-14.3-24.9h14.1l9.9-9h-44.4c-19.9 0-38.7 15.2-38.7 32.7 0 17.9 13.6 32.3 33.8 32.3 1.4 0 2.8 0 4.1-.1-1.3 2.5-2.3 5.4-2.3 8.3 0 5 2.7 9 6 12.3-2.6 0-5 .1-7.7.1-24.7 0-43.7 15.7-43.7 32 0 16 20.8 26.1 45.5 26.1 28.1 0 43.7-16 43.7-32 .2-12.9-3.6-20.6-15.3-28.9zm-23.7-22.3c-11.4-.3-22.3-12.8-24.3-27.8s5.7-26.5 17.1-26.2c11.4.3 22.3 12.4 24.3 27.4 2 15.1-5.7 27-17.1 26.6zm-4.5 76.1c-17.1 0-29.4-10.8-29.4-23.8 0-12.7 15.3-23.3 32.3-23.1 4 0 7.7.7 11.1 1.8 9.3 6.4 15.9 10.1 17.8 17.4.4 1.5.5 3 .5 4.6 0 13-8.3 23.1-32.3 23.1z"/></svg>